<svg width="35" height="35" viewBox="0 0 35 35" fill="none" xmlns="http://www.w3.org/2000/svg">
<path fill-rule="evenodd" clip-rule="evenodd" d="M8.0006 11.1093C8.0006 10.4967 8.49726 10 9.10993 10H25.7499C26.3626 10 26.8593 10.4967 26.8593 11.1093C26.8593 11.722 26.3626 12.2187 25.7499 12.2187H9.10993C8.49727 12.2187 8.0006 11.722 8.0006 11.1093ZM8 16.656C8 16.0434 8.49667 15.5467 9.10933 15.5467H23.2348C23.8475 15.5467 24.3442 16.0434 24.3442 16.656C24.3442 17.2687 23.8475 17.7654 23.2348 17.7654H9.10933C8.49667 17.7654 8 17.2687 8 16.656ZM9.10933 21.0933C8.49667 21.0933 8 21.59 8 22.2027C8 22.8153 8.49667 23.312 9.10933 23.312H20.7204C21.333 23.312 21.8297 22.8153 21.8297 22.2027C21.8297 21.59 21.333 21.0933 20.7204 21.0933H9.10933Z" fill="#A0A0A0"/>
</svg>
