<svg width="35" height="35" viewBox="0 0 35 35" fill="none" xmlns="http://www.w3.org/2000/svg">
<path d="M23.1564 30H12.6051C11.7226 30 10.8491 29.8252 10.0361 29.4859C9.22305 29.1465 8.48707 28.6495 7.87159 28.0243C7.25611 27.399 6.7736 26.6581 6.45256 25.8454C6.13152 25.0327 5.97847 24.1646 6.00244 23.2924L6.26691 14.2838C6.26752 13.1478 6.7242 12.0586 7.53662 11.2554C8.34904 10.4521 9.45074 10.0006 10.5997 10H25.1618C26.3108 10.0006 27.4125 10.4521 28.2249 11.2554C29.0373 12.0586 29.494 13.1478 29.4946 14.2838L29.7591 23.2924C29.783 24.1646 29.63 25.0327 29.3089 25.8454C28.9879 26.6581 28.5054 27.399 27.8899 28.0243C27.2744 28.6495 26.5385 29.1465 25.7255 29.4859C24.9125 29.8252 24.0389 30 23.1564 30Z" stroke="#434343" stroke-width="1.25" stroke-miterlimit="10"/>
<path d="M22.3606 14.2856C22.3606 15.4223 21.8675 16.5124 20.9898 17.3161C20.112 18.1198 18.9216 18.5714 17.6803 18.5714C16.439 18.5714 15.2486 18.1198 14.3708 17.3161C13.4931 16.5124 13 15.4223 13 14.2856" stroke="#434343" stroke-width="1.25" stroke-miterlimit="10" stroke-linecap="square"/>
<path d="M13 10C13 8.67392 13.4931 7.40215 14.3708 6.46447C15.2486 5.52678 16.439 5 17.6803 5C18.9216 5 20.112 5.52678 20.9898 6.46447C21.8675 7.40215 22.3606 8.67392 22.3606 10" stroke="#434343" stroke-width="1.25" stroke-miterlimit="10"/>
</svg>
