<svg width="35" height="35" viewBox="0 0 35 35" fill="none" xmlns="http://www.w3.org/2000/svg">
<path fill-rule="evenodd" clip-rule="evenodd" d="M17.5 6.26957C11.2985 6.26957 6.27119 11.2905 6.27119 17.4841C6.27119 20.4915 7.45644 23.2223 9.38587 25.2362C9.70808 23.5624 10.544 22.0184 11.7926 20.8271C12.4736 20.1774 13.2541 19.6549 14.0969 19.2745C13.1907 18.3911 12.6271 17.1572 12.6271 15.7914C12.6271 13.1036 14.8088 10.9247 17.5 10.9247C20.1912 10.9247 22.3729 13.1036 22.3729 15.7914C22.3729 17.1572 21.8093 18.3912 20.9031 19.2745C21.7724 19.6669 22.575 20.2102 23.2704 20.8879C24.4852 22.0717 25.2976 23.5921 25.6141 25.2362C27.5436 23.2223 28.7288 20.4915 28.7288 17.4841C28.7288 11.2905 23.7015 6.26957 17.5 6.26957ZM25.5742 27.0148C28.2814 24.7248 30 21.3049 30 17.4841C30 10.5893 24.4036 5 17.5 5C10.5964 5 5 10.5893 5 17.4841C5 23.0587 8.65848 27.78 13.7083 29.3836C17.6876 30.6902 22.2045 29.9233 25.5391 27.0474C25.5513 27.0369 25.5629 27.026 25.5742 27.0148ZM24.4722 26.2755C24.3459 24.5817 23.605 22.9877 22.3827 21.7966C21.5461 20.9814 20.5263 20.3959 19.4213 20.0805C19.1753 20.0103 18.9955 19.7997 18.9649 19.5461C18.9343 19.2925 19.0589 19.0452 19.2811 18.9187C20.3699 18.2986 21.1017 17.1299 21.1017 15.7914C21.1017 13.8047 19.4892 12.1942 17.5 12.1942C15.5108 12.1942 13.8983 13.8047 13.8983 15.7914C13.8983 17.1299 14.6301 18.2986 15.7189 18.9187C15.9411 19.0452 16.0657 19.2925 16.0351 19.5461C16.0045 19.7997 15.8247 20.0103 15.5787 20.0805C14.4978 20.3891 13.4976 20.9562 12.6706 21.7452C11.4341 22.9249 10.676 24.5135 10.5331 26.2084C11.6049 27.0932 12.8062 27.7458 14.0684 28.1653C15.1501 28.5117 16.3032 28.6987 17.5 28.6987C20.1344 28.6987 22.5569 27.7926 24.4722 26.2755Z" fill="#434343"/>
</svg>
